<?xml version="1.0" encoding="utf-8"?>
<svg version="1.1" xmlns:xlink="http://www.w3.org/1999/xlink" width="12px" height="12px" viewBox="240 115.5  12 12" xmlns="http://www.w3.org/2000/svg">
  <path d="M 246 115.5  C 249.36 115.5  252 118.14  252 121.5  C 252 124.86  249.36 127.5  246 127.5  C 242.64 127.5  240 124.86  240 121.5  C 240 118.14  242.64 115.5  246 115.5  Z " fill-rule="nonzero" fill="#ffffff" stroke="none" />
  <path d="M 246 116  C 249.08 116  251.5 118.42  251.5 121.5  C 251.5 124.58  249.08 127  246 127  C 242.92 127  240.5 124.58  240.5 121.5  C 240.5 118.42  242.92 116  246 116  Z " stroke-width="1" stroke="#797979" fill="none" />
  <path d="M 246 124.5  C 244.32 124.5  243 123.18  243 121.5  C 243 119.82  244.32 118.5  246 118.5  C 247.68 118.5  249 119.82  249 121.5  C 249 123.18  247.68 124.5  246 124.5  " fill-rule="nonzero" fill="#797979" stroke="none" />
</svg>