<?xml version="1.0" encoding="utf-8"?>
<svg version="1.1" xmlns:xlink="http://www.w3.org/1999/xlink" width="12px" height="12px" viewBox="63 115.5  12 12" xmlns="http://www.w3.org/2000/svg">
  <path d="M 69 115.5  C 72.36 115.5  75 118.14  75 121.5  C 75 124.86  72.36 127.5  69 127.5  C 65.64 127.5  63 124.86  63 121.5  C 63 118.14  65.64 115.5  69 115.5  Z " fill-rule="nonzero" fill="#ffffff" stroke="none" />
  <path d="M 69 116  C 72.08 116  74.5 118.42  74.5 121.5  C 74.5 124.58  72.08 127  69 127  C 65.92 127  63.5 124.58  63.5 121.5  C 63.5 118.42  65.92 116  69 116  Z " stroke-width="1" stroke="#797979" fill="none" />
  <path d="M 69 124.5  C 67.32 124.5  66 123.18  66 121.5  C 66 119.82  67.32 118.5  69 118.5  C 70.68 118.5  72 119.82  72 121.5  C 72 123.18  70.68 124.5  69 124.5  " fill-rule="nonzero" fill="#797979" stroke="none" />
</svg>